<?xml version="1.0" standalone="no"?>
<!DOCTYPE svg PUBLIC "-//W3C//DTD SVG 1.1//EN" "http://www.w3.org/Graphics/SVG/1.1/DTD/svg11.dtd">
<svg xmlns="http://www.w3.org/2000/svg" id="_レイヤー_2" width="50" height="50" viewBox="0 0 50 50"><defs><style>.cls-1,.cls-2{fill:#fff;}.cls-2{opacity:0;}.cls-3{fill:gray;}</style></defs><g id="btn"><rect class="cls-2" width="50" height="50" rx="4" ry="4"/><path d="m15.422,37.35v-1.592h1.001v1.543c.55-.039,1.104-.089,1.66-.151v.942c-.543.049-1.097.088-1.66.117v1.572c.55-.189,1.113-.283,1.689-.283,1.562,0,2.344.753,2.344,2.261,0,.924-.319,1.566-.957,1.924-.475.264-1.18.396-2.114.396l-.083-.918c.778,0,1.323-.116,1.636-.347.296-.225.444-.592.444-1.104,0-.43-.116-.755-.347-.977-.211-.202-.509-.303-.894-.303-.651,0-1.224.093-1.719.278v2.373c0,.42-.088.713-.264.879-.15.14-.384.21-.703.21-.312,0-.633-.098-.962-.293-.687-.41-1.03-.907-1.03-1.489,0-.915.653-1.685,1.958-2.31v-1.812c-.762.029-1.364.047-1.807.054v-.933c.674,0,1.276-.013,1.807-.039Zm.024,3.74c-.716.381-1.074.778-1.074,1.191,0,.329.19.584.571.767.133.062.248.093.342.093.107,0,.161-.07.161-.21v-1.841Zm2.695-4.258l.601-.752c.895.508,1.623,1.071,2.183,1.689l-.732.811c-.589-.723-1.273-1.305-2.051-1.748Z"/><path d="m22.604,36.261c1.361-.01,2.814-.096,4.36-.259l.43.757c-1.729,1.4-2.838,2.274-3.33,2.622l-.562.317.02.054.669-.22c.612-.16,1.869-.394,3.77-.703l.151.981c-.501.039-1.061.163-1.68.371-.58.189-1.035.46-1.367.815-.296.316-.444.646-.444.991,0,.488.244.827.732,1.016.439.169,1.166.257,2.178.264l-.117,1.064c-1.332-.042-2.287-.243-2.866-.601-.57-.355-.854-.902-.854-1.641,0-.436.165-.843.493-1.221.329-.375.788-.674,1.377-.898l-.01-.073-.562.21c-1.422.377-2.446.664-3.071.859l-.308-.947c.377-.133.734-.321,1.069-.562.895-.648,1.945-1.517,3.149-2.607-.797.127-1.86.22-3.188.278l-.039-.869Z"/><path d="m32.497,40.992l.859.596c-.326,1.647-.908,2.471-1.748,2.471-.55,0-.963-.243-1.24-.728-.277-.492-.46-1.286-.552-2.383-.052-.7-.078-1.537-.078-2.51l.01-1.929h1.089c0,.127-.008.42-.024.879-.01.303-.015.547-.015.732v.732c0,.843.02,1.519.059,2.026.065.807.172,1.366.322,1.675.107.225.248.337.42.337.215,0,.379-.127.493-.381.124-.264.259-.77.405-1.519Zm1.401-3.662l.981-.259c.947,1.41,1.543,3.249,1.787,5.518l-1.118.171c-.221-2.256-.771-4.066-1.65-5.43Z"/><rect id="_長方形_267" class="cls-3" x="4.804" y="10.178" width="40" height="18"/><path class="cls-1" d="m13.625,13.227c1.109,0,1.977.396,2.602,1.188.745.938,1.117,2.492,1.117,4.664s-.375,3.724-1.125,4.672c-.62.781-1.484,1.172-2.594,1.172s-2.013-.428-2.695-1.285c-.683-.856-1.023-2.384-1.023-4.582,0-2.156.375-3.708,1.125-4.656.62-.781,1.484-1.172,2.594-1.172Zm0,1.82c-.266,0-.503.085-.711.254-.208.169-.37.473-.484.91-.151.568-.227,1.523-.227,2.867s.067,2.267.203,2.77c.135.503.306.837.512,1.004.206.167.441.25.707.25s.502-.084.711-.254c.208-.169.37-.473.484-.91.151-.562.227-1.516.227-2.859s-.068-2.267-.203-2.77c-.136-.502-.306-.838-.512-1.008-.206-.169-.441-.254-.707-.254Z"/><path class="cls-1" d="m19.281,24.727v-2.195h2.195v2.195h-2.195Z"/><path class="cls-1" d="m25.14,18.547c-.568-.239-.98-.569-1.238-.988-.258-.419-.387-.879-.387-1.379,0-.854.298-1.56.895-2.117.596-.557,1.444-.836,2.543-.836,1.088,0,1.934.279,2.535.836.602.558.902,1.263.902,2.117,0,.531-.138,1.004-.414,1.418-.276.414-.664.73-1.164.949.635.255,1.118.628,1.449,1.117.331.49.496,1.055.496,1.695,0,1.058-.337,1.917-1.012,2.578-.675.662-1.572.992-2.691.992-1.042,0-1.909-.273-2.602-.82-.818-.646-1.227-1.531-1.227-2.656,0-.62.153-1.188.461-1.707.307-.518.792-.918,1.453-1.199Zm.25,2.695c0,.604.155,1.076.465,1.414.31.339.696.508,1.16.508.453,0,.828-.163,1.125-.488.297-.325.445-.795.445-1.41,0-.536-.151-.967-.453-1.293-.302-.325-.685-.488-1.148-.488-.537,0-.937.185-1.199.555-.263.37-.395.771-.395,1.203Zm.203-4.906c0,.438.124.779.371,1.023.247.245.577.367.988.367.417,0,.75-.124,1-.371.25-.247.375-.59.375-1.027,0-.411-.124-.741-.371-.988-.248-.247-.574-.371-.98-.371-.422,0-.758.125-1.008.375s-.375.581-.375.992Z"/><path class="cls-1" d="m31.57,24.727l2.992-4.273-2.867-4.023h2.68l1.469,2.281,1.547-2.281h2.578l-2.812,3.93,3.07,4.367h-2.695l-1.688-2.57-1.703,2.57h-2.57Z"/></g></svg>