<?xml version="1.0" standalone="no"?>
<!DOCTYPE svg PUBLIC "-//W3C//DTD SVG 1.1//EN" "http://www.w3.org/Graphics/SVG/1.1/DTD/svg11.dtd">
<svg xmlns="http://www.w3.org/2000/svg" id="b" width="50" height="50" viewBox="0 0 50 50"><defs><style>.h,.i,.j,.k{stroke-width:0px;}.i{fill:gray;}.j,.k{fill:#fff;}.k{opacity:0;}</style></defs><g id="c"><rect class="k" width="50" height="50" rx="4" ry="4"/><path class="h" d="M14.7,39.93l1,.4c-.21,1.27-.55,2.43-1.02,3.48l-.93-.4c.45-.99.77-2.15.95-3.48ZM15.45,36.76l.33-.87c1.59.15,2.94.39,4.06.73l-.39.93c-1.23-.4-2.57-.66-4-.79ZM15.77,42.92c.49.2,1,.3,1.54.3.49,0,.74-.27.74-.8,0-.27-.07-.53-.21-.77-.13-.22-.35-.5-.66-.83-.57-.59-.86-1.13-.86-1.61,0-.51.28-1.04.85-1.59l.81.59c-.44.36-.66.68-.66.93,0,.18.06.35.18.52.09.14.28.35.55.62.42.42.72.82.89,1.21.15.33.22.68.22,1.06,0,.54-.17.95-.52,1.24-.31.26-.73.39-1.26.39-.56,0-1.09-.1-1.58-.29l-.02-.97ZM19.32,39.88l1-.32c.46,1.03.82,2.29,1.07,3.79l-1.03.34c-.16-1.38-.51-2.65-1.04-3.81Z"/><path class="h" d="M22.58,38.73l-.31-1.01c2.01-.47,3.4-.7,4.18-.7.93,0,1.63.29,2.08.88.4.52.61,1.25.61,2.21,0,1.3-.51,2.25-1.52,2.85-.73.43-1.81.72-3.24.87l-.39-.98c1.27-.09,2.22-.31,2.86-.66.79-.44,1.19-1.14,1.19-2.1,0-.81-.17-1.39-.51-1.73-.27-.26-.65-.4-1.14-.4-.72,0-1.99.26-3.8.77Z"/><path class="h" d="M30.49,38.54c1.29-.37,2.33-.55,3.13-.55s1.31.24,1.64.71c.27.39.41.97.41,1.73,0,1.06-.29,1.9-.88,2.53-.62.67-1.53,1.14-2.72,1.42l-.53-.91c1.12-.26,1.92-.64,2.38-1.15.44-.47.65-1.11.65-1.94,0-.96-.33-1.44-.99-1.44s-1.54.2-2.71.61l-.38-1.01ZM31.7,35.67c1.04.26,2.26.46,3.66.61l-.23,1c-1.35-.16-2.59-.37-3.7-.64l.27-.97Z"/><rect id="d" class="i" x="4.8" y="10.18" width="40" height="18"/><g id="e"><path id="f" class="j" d="M22.02,23.87h-2.06v-7.82c-.76.71-1.67,1.25-2.66,1.57v-1.88c.64-.23,1.23-.57,1.75-1.01.59-.44,1.04-1.04,1.3-1.73h1.67v10.87ZM24.55,23.87l2.81-4.04-2.69-3.8h2.51l1.38,2.16,1.45-2.16h2.42l-2.64,3.71,2.88,4.13h-2.53l-1.58-2.43-1.59,2.43h-2.41Z"/><path id="g" class="j" d="M22.02,23.87h-2.06v-7.82c-.76.71-1.67,1.25-2.66,1.57v-1.88c.64-.23,1.23-.57,1.75-1.01.59-.44,1.04-1.04,1.3-1.73h1.67v10.87ZM24.55,23.87l2.81-4.04-2.69-3.8h2.51l1.38,2.16,1.45-2.16h2.42l-2.64,3.71,2.88,4.13h-2.53l-1.58-2.43-1.59,2.43h-2.41Z"/></g></g></svg>