<?xml version="1.0" standalone="no"?>
<!DOCTYPE svg PUBLIC "-//W3C//DTD SVG 1.1//EN" "http://www.w3.org/Graphics/SVG/1.1/DTD/svg11.dtd">
<svg xmlns="http://www.w3.org/2000/svg" id="_レイヤー_2" width="50" height="50" viewBox="0 0 50 50"><defs><style>.cls-1,.cls-2{fill:#fff;}.cls-2{opacity:0;}.cls-3{fill:gray;}</style></defs><g id="btn"><rect class="cls-2" width="50" height="50" rx="4" ry="4"/><path d="m14.624,36.021c-.439,1.947-.659,3.599-.659,4.956,0,.915.093,1.958.278,3.13l-1.03.093c-.16-1.143-.239-2.223-.239-3.242,0-1.351.204-3.024.61-5.02l1.04.083Zm4.019,2.48c.01,1.107.041,2.147.093,3.12.609.293,1.198.729,1.768,1.309l-.688.85c-.375-.511-.737-.88-1.089-1.108v.049c0,.469-.179.83-.537,1.084-.322.231-.753.347-1.294.347-1.234,0-1.851-.483-1.851-1.45,0-.443.181-.794.542-1.055.319-.231.724-.347,1.216-.347.319,0,.624.026.913.078-.045-.954-.073-1.899-.083-2.837-.57.02-1.126.029-1.67.029-.039,0-.365-.006-.977-.02v-.879c.469.02.879.029,1.23.029.459,0,.928-.01,1.406-.029v-1.743h1.03c-.006.4-.01.96-.01,1.68.482-.026,1.009-.072,1.582-.137v.928c-.358.029-.885.063-1.582.103Zm-.898,3.789c-.248-.114-.571-.171-.972-.171-.267,0-.48.057-.64.171-.146.107-.22.248-.22.42,0,.4.321.601.962.601.58,0,.869-.28.869-.84v-.181Z"/><path d="m26.821,37.262h.142c.674,0,1.187.208,1.538.625.299.358.449.84.449,1.445,0,.723-.252,1.268-.757,1.636-.436.316-1.024.474-1.763.474-.104,0-.331-.015-.679-.044l-.181-.938c.299.033.614.049.942.049.924,0,1.387-.386,1.387-1.157,0-.827-.332-1.24-.996-1.24-.609,0-1.52.207-2.734.62.501,1.862.939,3.668,1.313,5.42l-1.03.21c-.394-1.924-.807-3.688-1.24-5.293-.397.153-.89.353-1.479.601l-.371-.918c.553-.211,1.09-.405,1.611-.581-.127-.459-.324-1.143-.591-2.051l1.001-.259c.091.316.277.981.557,1.997.713-.218,1.33-.381,1.851-.488-.179-.43-.421-.9-.728-1.411l.898-.327c.312.518.599,1.061.859,1.631Z"/><path d="m33.266,40.992l.859.596c-.326,1.647-.908,2.471-1.748,2.471-.55,0-.963-.243-1.24-.728-.277-.492-.46-1.286-.552-2.383-.052-.7-.078-1.537-.078-2.51l.01-1.929h1.089c0,.127-.008.42-.024.879-.01.303-.015.547-.015.732v.732c0,.843.02,1.519.059,2.026.065.807.172,1.366.322,1.675.107.225.248.337.42.337.215,0,.379-.127.493-.381.124-.264.259-.77.405-1.519Zm1.401-3.662l.981-.259c.947,1.41,1.543,3.249,1.787,5.518l-1.118.171c-.221-2.256-.771-4.066-1.65-5.43Z"/><rect id="_長方形_267" class="cls-3" x="4.804" y="10.178" width="40" height="18"/><path class="cls-1" d="m15.531,24.727h-2.195v-8.273c-.802.75-1.748,1.305-2.836,1.664v-1.992c.573-.188,1.195-.543,1.867-1.066s1.133-1.134,1.383-1.832h1.781v11.5Z"/><path class="cls-1" d="m19.281,24.727v-2.195h2.195v2.195h-2.195Z"/><path class="cls-1" d="m30.672,22.688v2.039h-7.695c.083-.771.333-1.501.75-2.191.417-.69,1.239-1.605,2.469-2.746.989-.922,1.596-1.547,1.82-1.875.302-.453.453-.901.453-1.344,0-.489-.132-.866-.395-1.129-.263-.263-.626-.395-1.09-.395-.458,0-.823.138-1.094.414-.271.276-.427.734-.469,1.375l-2.188-.219c.13-1.208.539-2.075,1.227-2.602.688-.526,1.547-.789,2.578-.789,1.13,0,2.018.305,2.664.914.646.609.969,1.367.969,2.273,0,.516-.093,1.007-.277,1.473-.185.466-.478.955-.879,1.465-.266.339-.745.826-1.438,1.461-.693.636-1.132,1.058-1.316,1.266-.185.208-.335.412-.449.609h4.359Z"/><path class="cls-1" d="m31.57,24.727l2.992-4.273-2.867-4.023h2.68l1.469,2.281,1.547-2.281h2.578l-2.812,3.93,3.07,4.367h-2.695l-1.688-2.57-1.703,2.57h-2.57Z"/></g></svg>